<svg width="17" height="17" viewBox="0 0 17 17" fill="none" xmlns="http://www.w3.org/2000/svg">
<path d="M16.1933 8.10253C16.1933 9.2389 16.1704 10.3785 16.1998 11.5149C16.2488 13.5264 14.9851 15.0807 13.3752 15.773C12.7286 16.0506 12.0494 16.1975 11.3474 16.1975C9.14973 16.2008 6.94883 16.2302 4.7512 16.1877C3.09563 16.1551 1.73394 15.4628 0.75758 14.0979C0.244907 13.3795 0 12.5631 0 11.6782C0 9.33686 0 6.99881 0 4.6575C0 2.74723 0.930647 1.41166 2.58295 0.543061C3.30135 0.167536 4.08179 0.00753048 4.89488 0.00426505C7.0272 0.00426505 9.16279 -0.00879667 11.2951 0.0107959C12.9507 0.0238576 14.332 0.657351 15.3508 1.98965C15.919 2.73416 16.1933 3.58971 16.1933 4.53015C16.1933 5.71877 16.1933 6.91065 16.1933 8.10253ZM1.20494 8.10253C1.20494 9.30094 1.20494 10.4961 1.20494 11.6945C1.20494 12.23 1.32903 12.7329 1.60659 13.1868C2.33478 14.3787 3.43523 14.9599 4.80018 14.9828C6.99128 15.0154 9.18565 14.9958 11.38 14.9893C11.9188 14.9893 12.4413 14.8783 12.9278 14.6464C14.2536 14.013 14.9949 13.0039 14.9883 11.4888C14.9753 9.17032 14.9851 6.85187 14.9851 4.53341C14.9851 3.87706 14.7989 3.27622 14.4103 2.74723C13.6593 1.73168 12.6209 1.23207 11.38 1.219C9.19218 1.19288 7.00435 1.20921 4.81651 1.21247C4.34955 1.21247 3.89892 1.30717 3.46135 1.47044C2.25968 1.91781 1.1429 3.05091 1.19515 4.71954C1.23433 5.84938 1.20494 6.97596 1.20494 8.10253Z" fill="#CCCCCC"/>
<path d="M8.11496 12.307C6.00876 12.307 4.31073 10.6286 4.30747 8.5387C4.3042 6.48148 6.01529 4.79651 8.10843 4.79651C10.2081 4.79325 11.9127 6.47494 11.9159 8.54849C11.9159 10.6188 10.2146 12.3037 8.11496 12.307ZM8.11496 11.0988C9.54848 11.0988 10.711 9.95263 10.7077 8.54196C10.7044 7.14436 9.54195 6.00146 8.11496 6.00146C6.68144 6.00146 5.51241 7.14109 5.51241 8.54849C5.51568 9.95916 6.68144 11.1021 8.11496 11.0988Z" fill="#CCCCCC"/>
<path d="M12.3564 2.53894C12.7972 2.53894 13.1564 2.91446 13.1564 3.37489C13.1532 3.83532 12.7907 4.20757 12.3499 4.20431C11.9156 4.20104 11.5596 3.82878 11.5596 3.37816C11.5564 2.91773 11.9156 2.53894 12.3564 2.53894Z" fill="#CCCCCC"/>
</svg>
