<svg width="15" height="13" viewBox="0 0 15 13" fill="none" xmlns="http://www.w3.org/2000/svg">
<path d="M6.12242 11.3263C6.10325 11.2753 6.09665 11.2319 6.10315 11.1969C6.10962 11.162 6.08733 11.1331 6.03624 11.1109C5.98514 11.0886 5.95964 11.071 5.95964 11.0584C5.95964 11.0456 5.92302 11.036 5.84961 11.0297C5.77623 11.0233 5.73961 11.0201 5.73961 11.0201H5.6153H5.51009H2.75501C2.33411 11.0201 1.97375 10.8703 1.67397 10.5704C1.37426 10.2706 1.22442 9.91039 1.22442 9.48955V2.75488C1.22442 2.33397 1.37422 1.97375 1.67397 1.674C1.97375 1.37422 2.33411 1.22428 2.75501 1.22428H5.81617C5.8991 1.22428 5.9643 1.20371 6.01225 1.16216C6.05999 1.12071 6.09182 1.05849 6.10784 0.975599C6.12379 0.892705 6.13341 0.817852 6.13662 0.750873C6.13977 0.683961 6.13823 0.599392 6.1318 0.497366C6.12546 0.395373 6.12228 0.331611 6.12228 0.305978C6.12228 0.223084 6.09196 0.151481 6.03141 0.0907682C5.9708 0.0303231 5.8991 0 5.8162 0H2.75501C1.99616 0 1.34722 0.269456 0.808269 0.808336C0.269457 1.34722 0 1.99606 0 2.75498V9.48952C0 10.2484 0.269457 10.8974 0.808269 11.4361C1.34722 11.9752 1.99616 12.2447 2.75501 12.2447H5.8163C5.89923 12.2447 5.96447 12.2238 6.01238 12.1825C6.06013 12.141 6.09196 12.0789 6.10797 11.9959C6.12392 11.9131 6.13354 11.8379 6.13676 11.7712C6.1399 11.7042 6.13836 11.6198 6.13193 11.5177C6.12553 11.4156 6.12242 11.3519 6.12242 11.3263Z" fill="#4F5665"/>
<path d="M14.8183 5.69182L9.61431 0.487676C9.49321 0.366652 9.34967 0.305939 9.18385 0.305939C9.01803 0.305939 8.87449 0.366652 8.75326 0.487676C8.63207 0.608868 8.57153 0.752509 8.57153 0.91823V3.67331H4.28589C4.11996 3.67331 3.97652 3.73402 3.85533 3.85504C3.73414 3.97624 3.6736 4.11978 3.6736 4.2856V7.95908C3.6736 8.12487 3.73414 8.26841 3.85533 8.38953C3.97666 8.51049 4.12006 8.57137 4.28589 8.57137H8.57156V11.3264C8.57156 11.4921 8.63211 11.6358 8.7533 11.7569C8.87449 11.8781 9.01803 11.9387 9.18389 11.9387C9.34967 11.9387 9.49321 11.8781 9.61434 11.7569L14.8183 6.55296C14.9395 6.43167 15.0001 6.28833 15.0001 6.12247C15.0001 5.95669 14.9395 5.81301 14.8183 5.69182Z" fill="#4F5665"/>
</svg>
