<svg width="35" height="35" viewBox="0 0 35 35" fill="none" xmlns="http://www.w3.org/2000/svg">
<path d="M23.5136 23.9078C23.3486 24.0728 23.1671 24.1553 22.9691 24.1553C22.7711 24.1553 22.5896 24.0728 22.4246 23.9078L17.0046 18.4878L11.6342 23.8583C11.4692 24.0233 11.2877 24.1058 11.0897 24.1058C10.8917 24.1058 10.7102 24.0233 10.5452 23.8583L10.1987 23.5118C10.0337 23.3468 9.95124 23.1653 9.95124 22.9674C9.95124 22.7694 10.0337 22.5879 10.1987 22.4229L15.5692 17.0524L10.2977 11.7809C10.1327 11.6159 10.0502 11.4344 10.0502 11.2364C10.0502 11.0385 10.1327 10.857 10.2977 10.692L10.669 10.3207C10.8339 10.1558 11.0154 10.0733 11.2134 10.0733C11.4114 10.0733 11.5929 10.1558 11.7579 10.3207L17.0294 15.5922L22.4246 10.197C22.5896 10.032 22.7711 9.94951 22.9691 9.94952C23.1671 9.94952 23.3486 10.032 23.5136 10.197L23.86 10.5435C24.025 10.7085 24.1075 10.89 24.1075 11.088C24.1075 11.2859 24.025 11.4674 23.86 11.6324L18.4648 17.0277L23.8848 22.4476C24.0498 22.6126 24.1323 22.7941 24.1323 22.9921C24.1323 23.1901 24.0498 23.3716 23.8848 23.5366L23.5136 23.9078Z" fill="#626780"/>
</svg>
