<svg width="30" height="20" viewBox="0 0 30 20" fill="none" xmlns="http://www.w3.org/2000/svg">
<path fill-rule="evenodd" clip-rule="evenodd" d="M0 1.68262C0 2.53877 0.7375 3.23925 1.63889 3.23925H27.8611C28.7625 3.23925 29.5 2.53877 29.5 1.68262C29.5 0.826464 28.7625 0.125977 27.8611 0.125977H1.63889C0.7375 0.125977 0 0.826464 0 1.68262Z" fill="black"/>
<path fill-rule="evenodd" clip-rule="evenodd" d="M0 9.60022C0 10.4564 0.7375 11.1569 1.63889 11.1569H27.8611C28.7625 11.1569 29.5 10.4564 29.5 9.60022C29.5 8.74407 28.7625 8.04358 27.8611 8.04358H1.63889C0.7375 8.04358 0 8.74407 0 9.60022Z" fill="black"/>
<path fill-rule="evenodd" clip-rule="evenodd" d="M0 17.5179C0 18.3741 0.7375 19.0746 1.63889 19.0746H27.8611C28.7625 19.0746 29.5 18.3741 29.5 17.5179C29.5 16.6618 28.7625 15.9613 27.8611 15.9613H1.63889C0.7375 15.9613 0 16.6618 0 17.5179Z" fill="black"/>
</svg>
