<svg width="27" height="13" viewBox="0 0 27 13" fill="none" xmlns="http://www.w3.org/2000/svg">
<path d="M16.3435 0C15.6051 0 14.8829 0.164418 14.2486 0.442102C14.0013 0.54806 13.933 0.657673 13.933 0.873243V12.5579C13.933 12.7844 14.0892 12.9598 14.2843 12.9817H23.3702C25.1822 12.9817 26.6494 11.3522 26.6494 9.31703C26.6494 7.28555 25.1822 5.63406 23.3702 5.63406C22.9213 5.63406 22.4951 5.73637 22.1048 5.92271C21.8445 2.60512 19.3657 9.35357e-08 16.3435 0ZM13.2629 0.862282C13.175 0.862282 13.097 0.89882 13.0351 0.957279C12.9538 1.03035 12.9018 1.14362 12.9018 1.26785V1.30804L12.7521 9.56183L12.827 11.0854L12.9018 12.5725C12.905 12.7917 13.0644 12.9744 13.2629 12.9744C13.4581 12.9744 13.6207 12.7917 13.624 12.5689L13.7834 9.56183L13.624 1.26785C13.6207 1.1217 13.5491 0.993817 13.445 0.920742C13.3897 0.884205 13.3279 0.862282 13.2629 0.862282ZM12.1438 1.57841C12.0755 1.57841 12.0137 1.60034 11.9616 1.64053C11.8673 1.7063 11.8055 1.82322 11.8055 1.9584V2.02782L11.6786 9.55818C11.6786 9.56183 11.8055 12.6164 11.8055 12.6164V12.6273C11.8087 12.715 11.838 12.7917 11.8836 12.8539C11.9486 12.9379 12.0397 12.9927 12.1438 12.9927C12.2349 12.9927 12.3195 12.9488 12.3813 12.8794C12.4398 12.81 12.4789 12.7187 12.4821 12.6127L12.4951 12.3094L12.6253 9.55818L12.4821 1.95475C12.4789 1.82687 12.4171 1.70995 12.3292 1.64418C12.2739 1.60034 12.2121 1.57841 12.1438 1.57841ZM8.79637 2.45166C8.64998 2.45166 8.52961 2.58319 8.52636 2.75127L8.3572 9.55818L8.52636 12.6821C8.52961 12.8502 8.64998 12.9817 8.79637 12.9817C8.94276 12.9817 9.05987 12.8502 9.06637 12.6821L9.25505 9.55818L9.06637 2.75127C9.05987 2.58319 8.94276 2.45166 8.79637 2.45166ZM9.90242 2.60146C9.74302 2.60146 9.61289 2.74396 9.60964 2.92665L9.45349 9.55818L9.60964 12.6529C9.61289 12.8356 9.74302 12.9781 9.90242 12.9781C10.0618 12.9781 10.1887 12.8356 10.1952 12.6529L10.3676 9.55818L10.1952 2.92665C10.1919 2.74396 10.0618 2.60146 9.90242 2.60146ZM7.69682 2.70011C7.56344 2.70011 7.45609 2.82069 7.44959 2.97414L7.26741 9.55818L7.44959 12.704C7.45609 12.8575 7.56344 12.9781 7.69682 12.9781C7.8302 12.9781 7.93755 12.8575 7.94406 12.7004L8.149 9.55818L7.94406 2.97414C7.93755 2.82069 7.8302 2.70011 7.69682 2.70011ZM11.0182 2.81703C10.8458 2.81703 10.7059 2.97049 10.7027 3.16779L10.5628 9.55818L10.7027 12.6346C10.7059 12.8283 10.8426 12.9854 11.0182 12.9854C11.1906 12.9854 11.3305 12.8283 11.3338 12.631L11.4932 9.55818L11.3338 3.16779C11.3305 2.97049 11.1906 2.81703 11.0182 2.81703ZM6.59077 3.24817C6.4704 3.24817 6.36956 3.35778 6.36631 3.49663L6.17112 9.57279L6.36631 12.7515C6.36956 12.8904 6.4704 13 6.59077 13C6.71113 13 6.80873 12.8904 6.81523 12.7515L7.03644 9.57645L6.81523 3.49663C6.80873 3.35778 6.71113 3.24817 6.59077 3.24817ZM5.52701 4.38814C5.41966 4.38814 5.32857 4.48679 5.32532 4.61102L5.11712 9.55818L5.32532 12.7515C5.33182 12.8758 5.41966 12.9781 5.52701 12.9781C5.63436 12.9781 5.72219 12.8758 5.7287 12.7515L5.96292 9.55818L5.7287 4.61102C5.72219 4.48679 5.63436 4.38814 5.52701 4.38814ZM3.38972 6.1054C3.3084 6.1054 3.24008 6.17847 3.23358 6.28078L2.99935 9.55453L3.23358 12.726C3.24008 12.8246 3.3084 12.8977 3.38972 12.8977C3.47105 12.8977 3.53937 12.8246 3.54587 12.726L3.81263 9.55453L3.54587 6.27712C3.53937 6.17847 3.47105 6.1054 3.38972 6.1054ZM2.33572 6.21866C2.26415 6.21866 2.20885 6.28078 2.20234 6.36481L1.95186 9.55453L2.20234 12.6273C2.20885 12.7114 2.26415 12.7735 2.33572 12.7735C2.40404 12.7735 2.45934 12.7114 2.4691 12.6273L2.74886 9.55453L2.4691 6.36481C2.45934 6.28078 2.40404 6.21866 2.33572 6.21866ZM4.45349 6.31731C4.35915 6.31731 4.28107 6.40135 4.27457 6.51461L4.05336 9.55453L4.27457 12.7515C4.28107 12.8648 4.35915 12.9488 4.45349 12.9488C4.54783 12.9488 4.6259 12.8648 4.63241 12.7515L4.88289 9.55453L4.63241 6.51461C4.6259 6.40135 4.54783 6.31731 4.45349 6.31731ZM1.28823 6.7448C1.22967 6.7448 1.18413 6.79595 1.17437 6.86537L0.91412 9.55453L1.17437 12.1816C1.18413 12.2546 1.22967 12.3058 1.28823 12.3058C1.34353 12.3058 1.38907 12.2546 1.39883 12.1852L1.69486 9.55453L1.39883 6.86537C1.38907 6.79595 1.34353 6.7448 1.28823 6.7448ZM0.302538 7.77515C0.247235 7.77515 0.201692 7.82265 0.195186 7.89207L0 9.55453L0.195186 11.1877C0.201692 11.2572 0.247235 11.3047 0.302538 11.3047C0.354587 11.3047 0.400131 11.2572 0.406637 11.1914L0.637607 9.55453L0.406637 7.89207C0.400131 7.82265 0.354587 7.77515 0.302538 7.77515Z" fill="#CCCCCC"/>
</svg>
