<svg width="18" height="15" viewBox="0 0 18 15" fill="none" xmlns="http://www.w3.org/2000/svg">
<path d="M17.7662 1.66211C17.1127 1.94287 16.4101 2.13379 15.6727 2.21802C16.4245 1.78003 17.0028 1.08655 17.2747 0.261108C16.572 0.665405 15.7912 0.960204 14.9613 1.12024C14.2963 0.432372 13.3478 0 12.301 0C10.2885 0 8.65468 1.5863 8.65468 3.5404C8.65468 3.81836 8.68649 4.08789 8.7501 4.34619C5.71966 4.20019 3.03333 2.79077 1.23762 0.64856C0.922433 1.17078 0.743151 1.78003 0.743151 2.42859C0.743151 3.65552 1.3851 4.73926 2.36536 5.37378C1.76679 5.35413 1.20581 5.1969 0.714235 4.93017C0.714235 4.94702 0.714235 4.96106 0.714235 4.9751C0.714235 6.69055 1.96921 8.12244 3.63768 8.44531C3.33117 8.52673 3.0102 8.57165 2.67766 8.57165C2.44344 8.57165 2.2121 8.54919 1.99234 8.50708C2.455 9.9137 3.80251 10.9357 5.3958 10.9666C4.1495 11.9155 2.57645 12.4799 0.870383 12.4799C0.575436 12.4799 0.286272 12.463 0 12.4293C1.61354 13.4344 3.5278 14.0212 5.58665 14.0212C12.2924 14.0212 15.959 8.62781 15.959 3.95032C15.959 3.79871 15.9532 3.64429 15.9474 3.49268C16.6587 2.99292 17.2775 2.36963 17.7662 1.66211Z" fill="#CCCCCC"/>
</svg>
